<?xml version="1.0" encoding="UTF-8"?>
<svg width="512pt" height="512pt" version="1.1" viewBox="0 0 512 512" xmlns="http://www.w3.org/2000/svg">
 <path d="m160.44 366.99c1.4141 0 2.5586-1.1484 2.5586-2.5586v-29.016c0-1.4141-1.1484-2.5586-2.5586-2.5586-1.4141 0-2.5586 1.1484-2.5586 2.5586v29.016c-0.003906 1.4102 1.1445 2.5586 2.5586 2.5586z"/>
 <path d="m164.04 280.65c1.4141 0 2.5586-1.1484 2.5586-2.5586v-29.012c0-1.4141-1.1484-2.5586-2.5586-2.5586-1.4141 0-2.5586 1.1484-2.5586 2.5586v29.012c-0.003906 1.418 1.1445 2.5586 2.5586 2.5586z"/>
 <path d="m181.32 427.58c1.4141 0 2.5586-1.1484 2.5586-2.5586v-29.016c0-1.4141-1.1484-2.5586-2.5586-2.5586-1.4141 0-2.5586 1.1484-2.5586 2.5586v29.016c-0.003906 1.4102 1.1445 2.5586 2.5586 2.5586z"/>
 <path d="m213.32 349.92c-1.4141 0-2.5586 1.1484-2.5586 2.5586v29.016c0 1.4141 1.1484 2.5586 2.5586 2.5586 1.4141 0 2.5586-1.1484 2.5586-2.5586v-29.016c0-1.418-1.1484-2.5586-2.5586-2.5586z"/>
 <path d="m258.11 388.35c-1.4141 0-2.5586 1.1484-2.5586 2.5586v29.016c0 1.4141 1.1484 2.5586 2.5586 2.5586 1.4141 0 2.5586-1.1484 2.5586-2.5586v-29.016c-0.003906-1.418-1.1484-2.5586-2.5586-2.5586z"/>
 <path d="m302.91 398.56c-1.4141 0-2.5586 1.1484-2.5586 2.5586v29.016c0 1.4141 1.1484 2.5586 2.5586 2.5586 1.4141 0 2.5586-1.1484 2.5586-2.5586v-29.016c0-1.418-1.1445-2.5586-2.5586-2.5586z"/>
 <path d="m313.16 335.42v29.016c0 1.4141 1.1484 2.5586 2.5586 2.5586 1.4141 0 2.5586-1.1484 2.5586-2.5586v-29.016c0-1.4141-1.1484-2.5586-2.5586-2.5586-1.4141-0.003906-2.5586 1.1406-2.5586 2.5586z"/>
 <path d="m343.88 315.79c1.4141 0 2.5586-1.1484 2.5586-2.5586v-29.012c0-1.4141-1.1484-2.5586-2.5586-2.5586-1.4141 0-2.5586 1.1484-2.5586 2.5586v29.012c0 1.4102 1.1445 2.5586 2.5586 2.5586z"/>
 <path d="m333.12 185.6c0 3.5312-2.8633 6.3984-6.3984 6.3984s-6.3984-2.8672-6.3984-6.3984c0-3.5352 2.8633-6.4023 6.3984-6.4023s6.3984 2.8672 6.3984 6.4023"/>
 <path d="m192.32 185.6c0 3.5312-2.8633 6.3984-6.3984 6.3984-3.5352 0-6.4023-2.8672-6.4023-6.3984 0-3.5352 2.8672-6.4023 6.4023-6.4023 3.5352 0 6.3984 2.8672 6.3984 6.4023"/>
 <path d="m200.78 274.69c0.070312 0.16797 0.19531 0.30078 0.28125 0.46094 4.4141 10.379 11.086 19.492 19.641 26.348 6.7227 25.902 20.016 43.039 35.609 43.039 15.738 0 29.133-17.453 35.801-43.762 15.59-12.953 24.898-33.402 24.898-55.344 0-37.938-27.371-68.801-61.016-68.801-33.645 0-61.016 30.863-61.016 68.801 0 10.098 2.0586 19.84 5.6875 28.738 0.0625 0.18359 0.042969 0.35547 0.11328 0.51953zm11.695 0.71094c1.3008-0.49609 2.6094-0.94531 3.9258-1.3867 0.20312 3.0938 0.46484 6.1328 0.82812 9.0938-1.7773-2.4258-3.3594-5.0039-4.7539-7.707zm14.016-4.3555c8.0547-1.9805 16.309-3.1328 24.703-3.457v65.48c-11.605-5.4727-22.996-28.93-24.703-62.023zm34.949 62.027v-65.465c8.3906 0.35938 16.645 1.5508 24.695 3.5742-1.7305 33.02-13.109 56.418-24.695 61.891zm34.078-51.035c0.29297-2.5547 0.53125-5.168 0.71094-7.8164 1.1016 0.38281 2.2031 0.77344 3.2969 1.1836-1.1953 2.3125-2.5352 4.5234-4.0078 6.6328zm-39.52-95.156c27.996 0 50.773 26.27 50.773 58.562 0 7.1289-1.1523 14.055-3.25 20.535-13.48-5.1445-27.586-8.0352-42.086-8.6133v-27.309c11.684-1.5938 20.48-8.5195 20.48-16.824 0-9.4805-11.465-17.172-25.602-17.172-14.137 0-25.602 7.6914-25.602 17.172 0 8.3047 8.7969 15.23 20.48 16.824v27.301c-14.727 0.51562-29.051 3.4062-42.723 8.6211-2.1055-6.4766-3.25-13.402-3.25-20.531 0.003906-32.293 22.781-58.566 50.777-58.566z"/>
 <path d="m256 35.84c-121.39 0-220.16 98.766-220.16 220.16s98.766 220.16 220.16 220.16 220.16-98.766 220.16-220.16-98.766-220.16-220.16-220.16zm-103.94 125.67c0-1.582 0.62109-3.0703 1.7344-4.1875 1.8125-1.8164 4.4961-2.1523 6.6953-1.1172-2.6719 2.5586-5.2461 5.2109-7.7109 7.9766-0.42578-0.82812-0.71875-1.7148-0.71875-2.6719zm103.94-23.273c64.938 0 117.76 52.828 117.76 117.76v148.23c-6.0586 4.8164-12.387 9.2969-19.004 13.363v-26.691c0-1.4141-1.1484-2.5586-2.5586-2.5586-1.4141 0-2.5586 1.1484-2.5586 2.5586v29.016c0 0.21094 0.070313 0.39453 0.11719 0.58984-27.676 15.832-59.664 24.934-93.758 24.934-44.484 0-85.406-15.453-117.77-41.215l0.003906-148.23c0-64.934 52.828-117.76 117.76-117.76zm103.34 26.074c-2.4688-2.7812-5.0586-5.4531-7.7422-8.0273 2.2227-1.1094 4.9648-0.8125 6.8164 1.0391 1.8984 1.8984 2.1523 4.7344 0.92578 6.9883zm46.082 158.82h27.695c-1.9883 5.2266-4.1719 10.359-6.6016 15.359h-25.492c1.3008-5.4336 2.7734-10.547 4.3984-15.359zm-9.9453 51.199h8.3047c-2.8555 3.5586-5.832 7.0195-8.9297 10.359 0.14453-3.5195 0.35547-6.9688 0.625-10.359zm1.0117-10.238c0.64062-5.3086 1.4141-10.441 2.3438-15.359h22.273c-2.9805 5.2773-6.1992 10.402-9.6562 15.359zm46.426-77.371h-17.535c5.6836-5.8438 11.652-9.043 17.465-9.043 0.42969 0 0.87109 0.09375 1.3047 0.12109-0.34375 3.0039-0.74609 5.9727-1.2344 8.9219zm-25.48 10.242h23.5c-1.1914 5.3945-2.5859 10.715-4.2305 15.93h-27.43c2.5234-5.9922 5.25-11.352 8.1602-15.93zm-350.87-40.961c0-104.46 84.98-189.44 189.44-189.44 104.46 0 189.44 84.98 189.44 189.44 0 0.47266-0.03125 0.93359-0.035156 1.4023-0.85547-0.054688-1.7031-0.20312-2.5664-0.20312-19.348 0-36.348 14.566-48.598 38.816l-0.003907-40.016c0-27.629-8.1758-53.359-22.191-74.977l0.83984-0.84375c10.297-10.297 10.297-27.043 0-37.34-10.293-10.297-27.051-10.297-37.34 0l-0.11719 0.11719c-22.496-15.848-49.883-25.195-79.43-25.195-29.496 0-56.844 9.3125-79.312 25.117l-0.035156-0.035156c-10.293-10.297-27.043-10.297-37.336 0-4.9883 4.9883-7.7344 11.617-7.7344 18.672s2.75 13.688 7.7344 18.668l0.71875 0.71875c-14.066 21.641-22.273 47.418-22.273 75.098l-0.003907 129.33c-31.723-33.887-51.199-79.367-51.199-129.33z"/>
</svg>
